<mxfile host="drawio-plugin" modified="2022-04-04T13:04:22.755Z" agent="5.0 (Macintosh; Intel Mac OS X 12_3_1) AppleWebKit/537.36 (KHTML, like Gecko) Chrome/89.0.4389.114 Safari/537.36" version="15.5.4" etag="9F1p7W-FVLmvsltVStO9" type="embed"><diagram id="-G4cPZcFNrwOz_GLT_Gy" name="Page-1"><mxGraphModel dx="1604" dy="1160" grid="1" gridSize="10" guides="1" tooltips="1" connect="1" arrows="1" fold="1" page="1" pageScale="1" pageWidth="850" pageHeight="1100" background="#ffffff" math="0" shadow="0"><root><mxCell id="0"/><mxCell id="1" parent="0"/><mxCell id="2" value="" style="rounded=0;whiteSpace=wrap;html=1;fillColor=#ffe6cc;strokeColor=#d79b00;" vertex="1" parent="1"><mxGeometry x="120" y="170" width="120" height="60" as="geometry"/></mxCell></root></mxGraphModel></diagram></mxfile>